# Blender v2.76 (sub 0) OBJ File: 'pyramid.blend'
# www.blender.org
mtllib pyramid.mtl
o Cube.003
v -2.204149 -0.001621 1.695634
v -0.017877 4.370923 -0.490637
v -2.204149 -0.001621 -2.676909
v 2.168394 -0.001621 1.695634
v 2.168394 -0.001621 -2.676909
vt 1.000000 0.426844
vt 0.656696 0.426844
vt 0.656696 0.000000
vt 0.171652 0.000000
vt 0.343304 0.477226
vt 0.000000 0.477226
vt 0.171652 0.477226
vt 0.343304 0.954451
vt 0.000000 0.954451
vt 0.514956 0.522774
vt 0.686608 1.000000
vt 0.343304 1.000000
vt 0.656696 0.522774
vt 0.343304 0.348516
vt 1.000000 0.000000
vn -0.662600 -0.349000 -0.662600
vn 0.662600 -0.349000 -0.662600
vn 0.662600 -0.349000 0.662600
vn 0.000000 1.000000 0.000000
vn -0.662600 -0.349000 0.662600
usemtl Material
s 1
f 3/1/1 5/2/2 4/3/3
f 2/4/4 3/5/1 1/6/5
f 2/7/4 5/8/2 3/9/1
f 2/10/4 4/11/3 5/12/2
f 2/3/4 1/13/5 4/14/3
f 1/15/5 3/1/1 4/3/3
